# xmcd
#
# Track frame offsets: 
#        150
#        17991
#        33153
#        59146
#        92293
#        113076
#        131435
#        145587
#        174112
#        188838
#        214861
#        228229
#        256008
#        267848
#        282618
#        301260
#        317160
#
# Disc length: 4386 seconds
#
# Revision: 0
# Processed by: cddbd v1.5.2PL0 Copyright (c) Steve Scherf et al.
# Submitted via: ExactAudioCopyFreeDBPlugin 1.0
#
DISCID=e5112011
DTITLE=Jaques Berndorf Christian Willison - Nuttenbunker
DYEAR=2012
DGENRE=Blues
TTITLE0=Manina
TTITLE1=Carmen
TTITLE2=Lonesome Road
TTITLE3=Ecki
TTITLE4=Winners
TTITLE5=Kein Parfüm
TTITLE6=Gregor
TTITLE7=Olga In Not
TTITLE8=I Say No
TTITLE9=Störung
TTITLE10=To Lose Low Tracks Waltz
TTITLE11=Angriff
TTITLE12=Tätowierung
TTITLE13=Schnaps
TTITLE14=Honestaholic
TTITLE15=Der Coup
TTITLE16=Just Come In
EXTD=
EXTT0=
EXTT1=
EXTT2=
EXTT3=
EXTT4=
EXTT5=
EXTT6=
EXTT7=
EXTT8=
EXTT9=
EXTT10=
EXTT11=
EXTT12=
EXTT13=
EXTT14=
EXTT15=
EXTT16=
PLAYORDER=
